<svg
        xmlns="http://www.w3.org/2000/svg"
        viewBox="0 0 350 44.79903350037193"
>
    <g
            transform="matrix(3.0188027654810767,0,0,3.0188027654810767,-2.9584253282732167,-16.663792647353784)"
            fill="#0278ae"
    >
        <path
                d="M0.98 6 l2.64 0 l0 11.56 l7.2 0 l0 2.44 l-9.84 0 l0 -14 z M15.32 20 l-2.62 0 l0 -14 l2.62 0 l0 14 z M31.22 6 l-5.82 14.06 l-2.74 0 l-5.82 -14.06 l2.96 0 l4.22 10.9 l4.24 -10.9 l2.96 0 z M43.28 17.4 l0 2.6 l-10.48 0 l0 -14 l10.48 0 l0 2.56 l-7.86 0 l0 3.22 l7.58 0 l0 2.46 l-7.58 0 l0 3.16 l7.86 0 z M56.480000000000004 8.3 l-2.1 1.08 c-0.48 -0.8 -1.8 -1.56 -3.32 -1.56 c-1.96 0 -2.9 0.82 -2.9 1.86 c0 1.22 1.44 1.56 3.12 1.76 c2.92 0.36 5.64 1.12 5.64 4.46 c0 3.12 -2.76 4.46 -5.88 4.46 c-2.86 0 -5.06 -0.88 -6.1 -3.44 l2.2 -1.14 c0.62 1.54 2.24 2.22 3.94 2.22 c1.66 0 3.22 -0.58 3.22 -2.1 c0 -1.32 -1.38 -1.86 -3.24 -2.06 c-2.86 -0.34 -5.5 -1.1 -5.5 -4.24 c0 -2.88 2.84 -4.06 5.42 -4.08 c2.18 0 4.44 0.62 5.5 2.78 z M61.6 20 l-2.62 0 l0 -14 l2.62 0 l0 14 z M76.28 20.02 l0 -10.16 l-4.56 6.08 l-0.52 0 l-4.46 -6.1 l0 10.18 l-2.64 0 l0 -14 l3.04 0 l4.38 6.02 l4.38 -6.02 l3.02 0 l0 14 l-2.64 0 z M84.04 8.5 l0 4.96 l3.96 0 c3.38 0 3.36 -4.96 0 -4.96 l-3.96 0 z M88 5.98 c6.84 0 6.86 9.9 0 9.9 l-3.96 0 l0 4.12 l-2.64 0 l0 -14 c2.2 0 4.4 -0.02 6.6 -0.02 z M94.92 6 l2.64 0 l0 11.56 l7.2 0 l0 2.44 l-9.84 0 l0 -14 z M106.46 6 l3.56 5.78 l3.72 -5.78 l3.18 0 l0 0.12 l-5.58 8.1 l0 5.78 l-2.64 0 l0 -5.78 l-5.38 -8.1 l0 -0.12 l3.14 0 z"
        />
    </g>
</svg>