<?xml version="1.0" standalone="no"?>
<!DOCTYPE svg PUBLIC "-//W3C//DTD SVG 20010904//EN"
 "http://www.w3.org/TR/2001/REC-SVG-20010904/DTD/svg10.dtd">
<svg version="1.0" xmlns="http://www.w3.org/2000/svg"
 width="648.000000pt" height="648.000000pt" viewBox="0 0 648.000000 648.000000"
 preserveAspectRatio="xMidYMid meet">
<metadata>
Created by potrace 1.14, written by Peter Selinger 2001-2017
</metadata>
<g transform="translate(0.000000,648.000000) scale(0.100000,-0.100000)"
fill="#000000" stroke="none">
<path d="M4077 5484 c-1 -1 -42 -5 -92 -9 -49 -4 -92 -8 -95 -10 -3 -1 -32 -6
-65 -10 -33 -4 -69 -9 -80 -10 -19 -3 -94 -21 -125 -30 -8 -2 -33 -9 -55 -14
-60 -15 -171 -58 -250 -98 -254 -126 -419 -315 -511 -585 -13 -40 -24 -75 -24
-78 0 -7 -11 -69 -17 -95 -3 -11 -7 -96 -8 -190 -3 -152 -1 -180 20 -261 23
-92 84 -228 117 -264 10 -10 18 -22 18 -24 0 -10 34 -49 105 -119 69 -68 200
-162 266 -192 19 -8 41 -20 49 -25 70 -44 513 -213 590 -225 8 -1 42 -10 75
-20 33 -10 65 -20 70 -21 6 -2 44 -13 85 -24 76 -22 138 -37 175 -45 11 -2 67
-16 125 -30 58 -15 110 -28 115 -29 6 -2 17 -5 25 -8 8 -3 51 -18 95 -33 44
-16 87 -33 95 -39 8 -6 33 -20 55 -31 48 -24 175 -146 175 -169 0 -9 4 -16 9
-16 15 0 32 -85 32 -165 -1 -73 -8 -111 -36 -169 -35 -75 -87 -130 -163 -175
-64 -38 -220 -96 -230 -86 -2 2 -12 0 -21 -4 -26 -14 -146 -24 -296 -25 -143
-1 -212 6 -245 24 -10 5 -26 10 -34 10 -41 0 -333 146 -344 172 -2 5 -10 8
-17 8 -7 0 -15 3 -17 8 -1 4 -25 25 -53 47 -113 90 -316 321 -298 339 4 3 2 6
-4 6 -6 0 -29 39 -53 86 l-43 87 -255 -258 -254 -258 81 -81 c45 -45 81 -84
81 -86 0 -4 -914 -4 -1015 -1 l-21 1 1 1566 c0 861 -4 1568 -8 1571 -4 3 -48
4 -97 3 -125 -2 -123 -2 -145 -1 -11 1 -57 2 -103 2 -45 0 -90 3 -99 6 -9 4
-14 2 -10 -3 3 -6 -20 -7 -59 -4 -36 3 -69 3 -75 -1 -5 -3 -30 -3 -54 1 -25 4
-45 3 -45 -1 0 -5 -10 -5 -22 0 -13 5 -32 5 -43 1 -11 -4 -23 -6 -26 -4 -7 4
-73 5 -156 3 l-52 -2 0 -1798 0 -1799 42 -1 c23 -1 46 -1 50 0 5 1 178 1 385
0 207 0 397 0 422 1 25 1 52 2 60 2 8 -1 71 -1 140 -1 69 1 134 0 145 -1 11
-1 27 -1 35 -1 8 0 132 0 275 0 143 0 280 0 305 1 25 1 52 2 60 2 8 -1 107 -1
220 -1 113 1 212 0 220 0 8 0 38 0 65 0 28 0 76 0 107 0 55 0 57 1 56 27 -1
65 -4 64 70 35 76 -30 304 -90 372 -99 25 -3 52 -7 60 -9 17 -5 105 -14 183
-20 68 -6 391 -6 442 -1 22 3 72 7 110 10 76 7 111 12 225 33 196 35 448 138
580 236 63 47 190 171 190 186 0 5 4 11 9 13 14 5 96 148 112 193 7 22 16 45
20 50 17 26 57 200 65 290 11 105 6 264 -11 350 -15 80 -88 247 -122 283 -7 7
-13 17 -13 22 0 15 -172 186 -230 228 -30 22 -80 54 -110 71 -55 31 -238 121
-247 121 -2 0 -25 10 -51 21 -25 12 -51 22 -57 24 -5 1 -23 7 -40 14 -44 18
-126 45 -245 80 -58 17 -118 35 -135 40 -16 5 -50 15 -75 22 -25 7 -49 14 -55
15 -49 14 -176 45 -200 49 -27 5 -124 27 -185 42 -14 4 -27 7 -30 7 -3 1 -11
5 -17 9 -7 5 -13 6 -13 3 0 -9 -170 53 -228 84 -148 79 -224 189 -230 336 -4
85 18 202 41 216 7 4 8 8 4 8 -5 0 1 13 13 30 79 110 219 185 405 215 22 4 51
8 65 11 62 10 320 12 370 3 119 -23 247 -78 365 -157 86 -58 247 -217 300
-297 22 -33 43 -62 47 -65 11 -9 94 -181 108 -224 l12 -38 254 258 c140 142
254 261 254 264 0 9 -170 179 -230 230 -29 25 -58 50 -64 55 -102 91 -257 184
-448 269 -82 37 -300 98 -393 111 -23 3 -52 8 -65 10 -58 12 -146 17 -323 19
-103 2 -188 2 -190 0z"/>
</g>
</svg>
